<svg width="296" height="650" viewBox="0 0 296 650" fill="none" xmlns="http://www.w3.org/2000/svg">
<path fill-rule="evenodd" clip-rule="evenodd" d="M296 17.6479C295.942 17.6485 295.883 17.6488 295.824 17.6488C286.039 17.6488 278.095 9.76326 278.001 0H165.762C165.668 9.76326 157.724 17.6488 147.939 17.6488C138.153 17.6488 130.209 9.76326 130.115 0H17.648C17.5543 9.70481 9.70481 17.5543 0 17.648V535.348C8.90067 535.927 16.0197 543.04 16.6093 551.938L18.5059 551.942L18.5016 554.087L16.6239 554.083C16.1509 563.096 8.98277 570.335 0 570.92V640C0 645.523 4.47716 650 10 650H286C291.523 650 296 645.523 296 640V570.958H295.98C286.636 570.958 278.97 563.767 278.217 554.617L277.124 554.615L277.128 552.47L278.168 552.472C278.516 542.934 286.358 535.31 295.98 535.31H296V17.6479ZM24.8094 554.1L29.0147 554.109L29.019 551.963L24.8138 551.955L24.8094 554.1ZM35.3225 554.122L39.5278 554.13L39.5321 551.985L35.3269 551.976L35.3225 554.122ZM45.8356 554.143L50.0408 554.152L50.0452 552.006L45.84 551.998L45.8356 554.143ZM56.3487 554.165L60.5539 554.173L60.5583 552.028L56.3531 552.019L56.3487 554.165ZM66.8618 554.186L71.067 554.195L71.0714 552.049L66.8662 552.04L66.8618 554.186ZM77.3749 554.207L81.5801 554.216L81.5845 552.07L77.3793 552.062L77.3749 554.207ZM87.888 554.229L92.0932 554.237L92.0976 552.092L87.8924 552.083L87.888 554.229ZM98.4011 554.25L102.606 554.259L102.611 552.113L98.4055 552.105L98.4011 554.25ZM108.914 554.272L113.119 554.28L113.124 552.135L108.919 552.126L108.914 554.272ZM119.427 554.293L123.632 554.302L123.637 552.156L119.432 552.148L119.427 554.293ZM129.94 554.315L134.146 554.323L134.15 552.178L129.945 552.169L129.94 554.315ZM140.453 554.336L144.659 554.345L144.663 552.199L140.458 552.191L140.453 554.336ZM150.967 554.358L155.172 554.366L155.176 552.221L150.971 552.212L150.967 554.358ZM161.48 554.379L165.685 554.388L165.689 552.242L161.484 552.234L161.48 554.379ZM171.993 554.401L176.198 554.409L176.202 552.264L171.997 552.255L171.993 554.401ZM182.506 554.422L186.711 554.431L186.715 552.285L182.51 552.276L182.506 554.422ZM193.019 554.443L197.224 554.452L197.229 552.307L193.023 552.298L193.019 554.443ZM203.532 554.465L207.737 554.474L207.742 552.328L203.536 552.319L203.532 554.465ZM214.045 554.486L218.25 554.495L218.255 552.349L214.05 552.341L214.045 554.486ZM224.558 554.508L228.763 554.516L228.768 552.371L224.563 552.362L224.558 554.508ZM235.071 554.529L239.277 554.538L239.281 552.392L235.076 552.384L235.071 554.529ZM245.584 554.551L249.79 554.559L249.794 552.414L245.589 552.405L245.584 554.551ZM256.098 554.572L260.303 554.581L260.307 552.435L256.102 552.427L256.098 554.572ZM266.611 554.594L270.816 554.602L270.82 552.457L266.615 552.448L266.611 554.594Z" fill="#D9D9D9"/>
</svg>
