<svg width="36" height="10" viewBox="0 0 36 10" fill="none" xmlns="http://www.w3.org/2000/svg">
<path d="M5.01451 0.527954L6.09834 3.86363H9.60568L6.76818 5.9252L7.85201 9.26088L5.01451 7.19931L2.17701 9.26088L3.26084 5.9252L0.42334 3.86363H3.93068L5.01451 0.527954Z" fill="#D9D9D9"/>
<path d="M17.8877 0.527954L18.9715 3.86363H22.4788L19.6413 5.9252L20.7252 9.26088L17.8877 7.19931L15.0502 9.26088L16.134 5.9252L13.2965 3.86363H16.8039L17.8877 0.527954Z" fill="#D9D9D9"/>
<path d="M31.8447 3.86363L30.7608 0.527954L29.677 3.86363H26.1697L29.0072 5.9252L27.9233 9.26088L30.7608 7.19931L33.5983 9.26088L32.5145 5.9252L35.352 3.86363H31.8447Z" fill="#D9D9D9"/>
</svg>
